I AM NOT RESPONSIBLE FOR YOUR SLOW COMPUTER NOT BEING ABLE TO PLAY THIS

2011-02-19 Mandalay Bay Resort & Casino, Las Vegas, Nevada, United States
HBO broadcast, main event only
Includes:
   Pre-fight video montage
   Ring entrances
   Fighter introductions
   Post-fight interviews and comments

File Information

Complete name                    : HBO Fernando Montiel vs. Nonito Donaire x264.720p.60fps.MAGICPOTATOES.mkv
Format                           : Matroska
File size                        : 1.03 GiB
Overall bit rate                 : 4 355 Kbps
Encoded date                     : UTC 2011-02-20 09:09:43
Writing application              : mkvmerge v4.4.0 ('Die Wiederkehr') built on Oct 31 2010 21:52:48
Writing library                  : libebml v1.0.0 + libmatroska v1.0.0

Video
ID                               : 1
Format                           : AVC
Format/Info                      : Advanced Video Codec
Format profile                   : High@L4.1
Format settings, CABAC           : Yes
Format settings, ReFrames        : 4 frames
Format settings, GOP             : M=2, N=32
Codec ID                         : V_MPEG4/ISO/AVC
Bit rate mode                    : Variable
Bit rate                         : 3 884 Kbps
Maximum bit rate                 : 20.0 Mbps
Width                            : 1 280 pixels
Height                           : 720 pixels
Display aspect ratio             : 16:9
Frame rate                       : 59.940 fps
Color space                      : YUV
Chroma subsampling               : 4:2:0
Bit depth                        : 8 bits
Scan type                        : Progressive
Bits/(Pixel*Frame)               : 0.070
Stream size                      : 936 MiB (89%)
Writing library                  : x264 core 112 r1867 22bfd31
Color primaries                  : BT.709-5, BT.1361, IEC 61966-2-4, SMPTE RP177
Transfer characteristics         : BT.709-5, BT.1361
Matrix coefficients              : BT.709-5, BT.1361, IEC 61966-2-4 709, SMPTE RP177

Audio
ID                               : 2
Format                           : AC-3
Format/Info                      : Audio Coding 3
Mode extension                   : CM (complete main)
Codec ID                         : A_AC3
Bit rate mode                    : Constant
Bit rate                         : 384 Kbps
Channel(s)                       : 2 channels
Channel positions                : Front: L R
Sampling rate                    : 48.0 KHz
Bit depth                        : 16 bits
Compression mode                 : Lossy
Stream size                      : 92.6 MiB (9%)

Screenshots

